<svg width="20" height="21" viewBox="0 0 20 21" fill="none" xmlns="http://www.w3.org/2000/svg">
<path d="M14.1665 15.5001C14.1665 15.9603 14.5396 16.3334 14.9998 16.3334C15.4601 16.3334 15.8332 15.9603 15.8332 15.5001C15.8332 15.0398 15.4601 14.6667 14.9998 14.6667C14.5396 14.6667 14.1665 15.0398 14.1665 15.5001Z" stroke="#818489" stroke-width="1.66667" stroke-linecap="round" stroke-linejoin="round"/>
<path d="M9.1665 15.5001C9.1665 15.9603 9.5396 16.3334 9.99984 16.3334C10.4601 16.3334 10.8332 15.9603 10.8332 15.5001C10.8332 15.0398 10.4601 14.6667 9.99984 14.6667C9.5396 14.6667 9.1665 15.0398 9.1665 15.5001Z" stroke="#818489" stroke-width="1.66667" stroke-linecap="round" stroke-linejoin="round"/>
<path d="M4.1665 15.5001C4.1665 15.9603 4.5396 16.3334 4.99984 16.3334C5.46007 16.3334 5.83317 15.9603 5.83317 15.5001C5.83317 15.0398 5.46007 14.6667 4.99984 14.6667C4.5396 14.6667 4.1665 15.0398 4.1665 15.5001Z" stroke="#818489" stroke-width="1.66667" stroke-linecap="round" stroke-linejoin="round"/>
<path d="M14.1665 10.5001C14.1665 10.9603 14.5396 11.3334 14.9998 11.3334C15.4601 11.3334 15.8332 10.9603 15.8332 10.5001C15.8332 10.0398 15.4601 9.66675 14.9998 9.66675C14.5396 9.66675 14.1665 10.0398 14.1665 10.5001Z" stroke="#818489" stroke-width="1.66667" stroke-linecap="round" stroke-linejoin="round"/>
<path d="M9.1665 10.5001C9.1665 10.9603 9.5396 11.3334 9.99984 11.3334C10.4601 11.3334 10.8332 10.9603 10.8332 10.5001C10.8332 10.0398 10.4601 9.66675 9.99984 9.66675C9.5396 9.66675 9.1665 10.0398 9.1665 10.5001Z" stroke="#818489" stroke-width="1.66667" stroke-linecap="round" stroke-linejoin="round"/>
<path d="M4.1665 10.5001C4.1665 10.9603 4.5396 11.3334 4.99984 11.3334C5.46007 11.3334 5.83317 10.9603 5.83317 10.5001C5.83317 10.0398 5.46007 9.66675 4.99984 9.66675C4.5396 9.66675 4.1665 10.0398 4.1665 10.5001Z" stroke="#818489" stroke-width="1.66667" stroke-linecap="round" stroke-linejoin="round"/>
<path d="M14.1665 5.50008C14.1665 5.96032 14.5396 6.33341 14.9998 6.33341C15.4601 6.33341 15.8332 5.96032 15.8332 5.50008C15.8332 5.03984 15.4601 4.66675 14.9998 4.66675C14.5396 4.66675 14.1665 5.03984 14.1665 5.50008Z" stroke="#818489" stroke-width="1.66667" stroke-linecap="round" stroke-linejoin="round"/>
<path d="M9.1665 5.50008C9.1665 5.96032 9.5396 6.33341 9.99984 6.33341C10.4601 6.33341 10.8332 5.96032 10.8332 5.50008C10.8332 5.03984 10.4601 4.66675 9.99984 4.66675C9.5396 4.66675 9.1665 5.03984 9.1665 5.50008Z" stroke="#818489" stroke-width="1.66667" stroke-linecap="round" stroke-linejoin="round"/>
<path d="M4.1665 5.50008C4.1665 5.96032 4.5396 6.33341 4.99984 6.33341C5.46007 6.33341 5.83317 5.96032 5.83317 5.50008C5.83317 5.03984 5.46007 4.66675 4.99984 4.66675C4.5396 4.66675 4.1665 5.03984 4.1665 5.50008Z" stroke="#818489" stroke-width="1.66667" stroke-linecap="round" stroke-linejoin="round"/>
</svg>
