<svg width="24" height="24" viewBox="0 0 24 24" fill="none" xmlns="http://www.w3.org/2000/svg">
<g id="vuesax/linear/profile-2user">
<g id="profile-2user">
<path id="Vector" d="M9.16006 10.8699C9.06006 10.8599 8.94006 10.8599 8.83006 10.8699C6.45006 10.7899 4.56006 8.83994 4.56006 6.43994C4.56006 3.98994 6.54006 1.99994 9.00006 1.99994C11.4501 1.99994 13.4401 3.98994 13.4401 6.43994C13.4301 8.83994 11.5401 10.7899 9.16006 10.8699Z" stroke="#8A8A8A" stroke-width="1.65" stroke-linecap="round" stroke-linejoin="round"/>
<path id="Vector_2" d="M16.41 4.00006C18.35 4.00006 19.91 5.57006 19.91 7.50006C19.91 9.39006 18.41 10.9301 16.54 11.0001C16.46 10.9901 16.37 10.9901 16.28 11.0001" stroke="#8A8A8A" stroke-width="1.65" stroke-linecap="round" stroke-linejoin="round"/>
<path id="Vector_3" d="M4.15992 14.5599C1.73992 16.1799 1.73992 18.8199 4.15992 20.4299C6.90992 22.2699 11.4199 22.2699 14.1699 20.4299C16.5899 18.8099 16.5899 16.1699 14.1699 14.5599C11.4299 12.7299 6.91992 12.7299 4.15992 14.5599Z" stroke="#8A8A8A" stroke-width="1.65" stroke-linecap="round" stroke-linejoin="round"/>
<path id="Vector_4" d="M18.3401 20.0001C19.0601 19.8501 19.7401 19.5601 20.3001 19.1301C21.8601 17.9601 21.8601 16.0301 20.3001 14.8601C19.7501 14.4401 19.0801 14.1601 18.3701 14.0001" stroke="#8A8A8A" stroke-width="1.65" stroke-linecap="round" stroke-linejoin="round"/>
</g>
</g>
</svg>
