<svg width="24" height="25" viewBox="0 0 24 25" fill="none" xmlns="http://www.w3.org/2000/svg">
<g id="vuesax/bold/eye-slash">
<path id="Vector" d="M21.2699 9.68005C20.9799 9.22005 20.6699 8.79005 20.3499 8.39005C19.9799 7.92005 19.2799 7.88005 18.8599 8.30005L15.8599 11.3001C16.0799 11.9601 16.1199 12.7201 15.9199 13.5101C15.5699 14.9201 14.4299 16.0601 13.0199 16.4101C12.2299 16.6101 11.4699 16.5701 10.8099 16.3501C10.8099 16.3501 9.37995 17.7801 8.34995 18.8101C7.84995 19.3101 8.00995 20.1901 8.67995 20.4501C9.74995 20.8601 10.8599 21.0701 11.9999 21.0701C13.7799 21.0701 15.5099 20.5501 17.0899 19.5801C18.6999 18.5801 20.1499 17.1101 21.3199 15.24C22.2699 13.7301 22.2199 11.1901 21.2699 9.68005Z" fill="#8A8A8A"/>
<path id="Vector_2" d="M14.02 10.48L9.98001 14.52C9.47001 14 9.14001 13.28 9.14001 12.5C9.14001 10.93 10.42 9.64001 12 9.64001C12.78 9.64001 13.5 9.97001 14.02 10.48Z" fill="#8A8A8A"/>
<path id="Vector_3" d="M18.25 6.25005L14.86 9.64005C14.13 8.90005 13.12 8.46005 12 8.46005C9.76 8.46005 7.96 10.2701 7.96 12.5001C7.96 13.6201 8.41 14.6301 9.14 15.3601L5.76 18.7501H5.75C4.64 17.8501 3.62 16.7001 2.75 15.3401C1.75 13.7701 1.75 11.2201 2.75 9.65005C3.91 7.83005 5.33 6.40005 6.91 5.42005C8.49 4.46005 10.22 3.93005 12 3.93005C14.23 3.93005 16.39 4.75005 18.25 6.25005Z" fill="#8A8A8A"/>
<path id="Vector_4" d="M14.86 12.5C14.86 14.07 13.58 15.36 12 15.36C11.94 15.36 11.89 15.36 11.83 15.34L14.84 12.33C14.86 12.39 14.86 12.44 14.86 12.5Z" fill="#8A8A8A"/>
<path id="Vector_5" d="M21.77 2.73C21.47 2.43 20.98 2.43 20.68 2.73L2.23 21.19C1.93 21.49 1.93 21.98 2.23 22.28C2.38 22.42 2.57 22.5 2.77 22.5C2.97 22.5 3.16 22.42 3.31 22.27L21.77 3.81C22.08 3.51 22.08 3.03 21.77 2.73Z" fill="#8A8A8A"/>
</g>
</svg>
